<?xml version="1.0" encoding="UTF-8"?><svg id="Layer_2" xmlns="http://www.w3.org/2000/svg" xmlns:xlink="http://www.w3.org/1999/xlink" viewBox="0 0 480 397.65"><defs><style>.cls-1{clip-rule:evenodd;fill:none;}.cls-2{fill:url(#linear-gradient);}.cls-3{clip-path:url(#clippath);}</style><clipPath id="clippath"><path class="cls-1" d="M95.83,198.82H0c0,109.81,89.02,198.82,198.82,198.82,53.49,0,103.36-21.01,141.13-58.77l140.05-140.05L339.42,58.23C303.44,22.26,253.73,0,198.82,0v95.83c-56.88,0-102.99,46.11-102.99,102.99M40.39,108.15c18.71,18.71,49.05,18.71,67.76,0,18.71-18.71,18.71-49.06,0-67.77-18.72-18.71-49.06-18.71-67.77,0-18.71,18.71-18.71,49.06,0,67.77ZM271.65,271.65c-18.64,18.63-44.39,30.16-72.83,30.16-56.88,0-102.99-46.11-102.99-102.99h102.99v-102.99c28.44,0,54.19,11.53,72.83,30.16l72.82,72.83-72.82,72.83Z"/></clipPath><linearGradient id="linear-gradient" x1="240" y1="429.3" x2="240" y2="0" gradientUnits="userSpaceOnUse"><stop offset="0" stop-color="#2924fc"/><stop offset="1" stop-color="#785ff9"/></linearGradient></defs><g id="Layer_1-2"><g class="cls-3"><rect class="cls-2" width="480" height="397.65"/></g></g></svg>